<?xml version="1.0"?>
<svg xmlns="http://www.w3.org/2000/svg" xmlns:xlink="http://www.w3.org/1999/xlink" xmlns:svgjs="http://svgjs.com/svgjs" version="1.1" width="512" height="512" x="0" y="0" viewBox="0 0 512.549 512.549" style="enable-background:new 0 0 512 512" xml:space="preserve" class=""><g>
<g xmlns="http://www.w3.org/2000/svg">
	<g>
		<g>
			<path d="M506.94,429.42c-0.141-0.083-0.285-0.162-0.43-0.238l0.107-0.427l-79.68-42.667V145.022l82.24-82.347     c4.136-4.16,4.136-10.88,0-15.04l-44.373-44.48c-4.148-4.183-10.902-4.21-15.085-0.062c-0.021,0.021-0.041,0.041-0.062,0.062     l-71.36,71.573H97.657c-1.927-0.235-3.882,0.06-5.653,0.853c-1.225,0.5-2.346,1.223-3.307,2.133L3.364,163.049     c-0.889,0.897-1.611,1.944-2.133,3.093v1.067c-0.3,0.897-0.479,1.829-0.533,2.773l-0.427,0.747v234.667c0,17.673,14.327,32,32,32     h288v-0.747l139.627,74.667c5.051,2.665,11.305,0.878,14.187-4.053l36.693-63.253C513.746,438.92,512.028,432.389,506.94,429.42z      M457.337,25.875l29.227,29.333l-14.507,14.4L442.83,40.275L457.337,25.875z M427.79,55.422l29.227,29.333l-88.32,88.427     l-29.227-29.333L427.79,55.422z M373.604,266.729H320.27v-55.36l50.987-12.8c1.881-0.42,3.614-1.341,5.013-2.667l29.333-29.547     v208.747l-21.333-11.307v-86.4C384.27,271.504,379.495,266.729,373.604,266.729z M324.217,188.435l5.867-23.68l17.707,17.707     L324.217,188.435z M53.604,142.889l32-32v49.173h-48.96L53.604,142.889z M32.27,416.062c-5.891,0-10.667-4.776-10.667-10.667     v-224H96.27c5.891,0,10.667-4.776,10.667-10.667V96.062H357.07l-40.213,40.32c-1.326,1.399-2.247,3.132-2.667,5.013l-12.8,50.667     h-46.08c0.627-3.521,0.948-7.09,0.96-10.667c-0.073-24.185-13.774-46.264-35.413-57.067c-8.85-4.529-18.645-6.905-28.587-6.933     c-35.346-0.115-64.093,28.445-64.208,63.791c-0.115,35.346,28.445,64.093,63.791,64.208c18.779,0.061,36.638-8.128,48.844-22.399     c2.606-3.052,4.927-6.337,6.933-9.813h51.307v64c0,5.891,4.776,10.667,10.667,10.667h53.333v64L223.31,277.182     c-5.051-2.665-11.305-0.878-14.187,4.053l-36.693,63.253c-2.969,5.088-1.251,11.62,3.837,14.589     c0.141,0.083,0.285,0.162,0.43,0.238l104.747,56.747H32.27z M185.337,189.822l31.253,26.88c-7.15,4.91-15.647,7.482-24.32,7.36     c-23.564,0-42.667-19.103-42.667-42.667s19.103-42.667,42.667-42.667c2.982,0.02,5.952,0.378,8.853,1.067l-18.453,37.013     C180.42,181.238,181.526,186.634,185.337,189.822z M205.497,179.155l14.72-29.76c9.286,8.049,14.651,19.711,14.72,32     c0.015,6.524-1.52,12.959-4.48,18.773L205.497,179.155z M460.857,487.208L196.43,346.729l26.027-44.8l28.373,15.04     l-10.667,17.493l18.453,10.667l10.667-18.24l28.373,15.04l-10.667,17.493l18.453,10.667l10.667-18.24l28.373,15.04     l-10.667,17.493l18.453,10.667l10.667-18.24l28.373,15.04l-10.667,17.493l18.453,10.667l10.667-18.24l28.373,15.04     l-10.667,17.493l18.453,10.667l10.667-18.24l28.373,15.04L460.857,487.208z" fill="#ffffff" data-original="#000000" style="" class=""/>
			<path d="M64.27,341.395H42.937v42.667c0,5.891,4.776,10.667,10.667,10.667H96.27v-21.333h-32V341.395z" fill="#ffffff" data-original="#000000" style="" class=""/>
		</g>
	</g>
</g>
<g xmlns="http://www.w3.org/2000/svg">
</g>
<g xmlns="http://www.w3.org/2000/svg">
</g>
<g xmlns="http://www.w3.org/2000/svg">
</g>
<g xmlns="http://www.w3.org/2000/svg">
</g>
<g xmlns="http://www.w3.org/2000/svg">
</g>
<g xmlns="http://www.w3.org/2000/svg">
</g>
<g xmlns="http://www.w3.org/2000/svg">
</g>
<g xmlns="http://www.w3.org/2000/svg">
</g>
<g xmlns="http://www.w3.org/2000/svg">
</g>
<g xmlns="http://www.w3.org/2000/svg">
</g>
<g xmlns="http://www.w3.org/2000/svg">
</g>
<g xmlns="http://www.w3.org/2000/svg">
</g>
<g xmlns="http://www.w3.org/2000/svg">
</g>
<g xmlns="http://www.w3.org/2000/svg">
</g>
<g xmlns="http://www.w3.org/2000/svg">
</g>
</g></svg>
